<svg width="104" height="12" viewBox="0 0 104 12" fill="none" xmlns="http://www.w3.org/2000/svg">
<path d="M16.93 6.25C16.93 5.68333 17.0433 5.19 17.27 4.77C17.4967 4.34333 17.81 4.01333 18.21 3.78C18.6167 3.54667 19.08 3.43 19.6 3.43C20.2733 3.43 20.8267 3.59333 21.26 3.92C21.7 4.24667 21.99 4.7 22.13 5.28H21.15C21.0567 4.94667 20.8733 4.68333 20.6 4.49C20.3333 4.29667 20 4.2 19.6 4.2C19.08 4.2 18.66 4.38 18.34 4.74C18.02 5.09333 17.86 5.59667 17.86 6.25C17.86 6.91 18.02 7.42 18.34 7.78C18.66 8.14 19.08 8.32 19.6 8.32C20 8.32 20.3333 8.22667 20.6 8.04C20.8667 7.85333 21.05 7.58667 21.15 7.24H22.13C21.9833 7.8 21.69 8.25 21.25 8.59C20.81 8.92333 20.26 9.09 19.6 9.09C19.08 9.09 18.6167 8.97333 18.21 8.74C17.81 8.50667 17.4967 8.17667 17.27 7.75C17.0433 7.32333 16.93 6.82333 16.93 6.25ZM26.0642 3.42C26.4776 3.42 26.8509 3.51 27.1842 3.69C27.5176 3.86333 27.7776 4.12667 27.9642 4.48C28.1576 4.83333 28.2542 5.26333 28.2542 5.77V9H27.3542V5.9C27.3542 5.35333 27.2176 4.93667 26.9442 4.65C26.6709 4.35667 26.2976 4.21 25.8242 4.21C25.3442 4.21 24.9609 4.36 24.6742 4.66C24.3942 4.96 24.2542 5.39667 24.2542 5.97V9H23.3442V1.6H24.2542V4.3C24.4342 4.02 24.6809 3.80333 24.9942 3.65C25.3142 3.49667 25.6709 3.42 26.0642 3.42ZM34.7407 6.05C34.7407 6.22333 34.7307 6.40667 34.7107 6.6H30.3307C30.364 7.14 30.5474 7.56333 30.8807 7.87C31.2207 8.17 31.6307 8.32 32.1107 8.32C32.504 8.32 32.8307 8.23 33.0907 8.05C33.3574 7.86333 33.544 7.61667 33.6507 7.31H34.6307C34.484 7.83667 34.1907 8.26667 33.7507 8.6C33.3107 8.92667 32.764 9.09 32.1107 9.09C31.5907 9.09 31.124 8.97333 30.7107 8.74C30.304 8.50667 29.984 8.17667 29.7507 7.75C29.5174 7.31667 29.4007 6.81667 29.4007 6.25C29.4007 5.68333 29.514 5.18667 29.7407 4.76C29.9674 4.33333 30.284 4.00667 30.6907 3.78C31.104 3.54667 31.5774 3.43 32.1107 3.43C32.6307 3.43 33.0907 3.54333 33.4907 3.77C33.8907 3.99667 34.1974 4.31 34.4107 4.71C34.6307 5.10333 34.7407 5.55 34.7407 6.05ZM33.8007 5.86C33.8007 5.51333 33.724 5.21667 33.5707 4.97C33.4174 4.71667 33.2074 4.52667 32.9407 4.4C32.6807 4.26667 32.3907 4.2 32.0707 4.2C31.6107 4.2 31.2174 4.34667 30.8907 4.64C30.5707 4.93333 30.3874 5.34 30.3407 5.86H33.8007ZM35.6019 6.25C35.6019 5.68333 35.7152 5.19 35.9419 4.77C36.1685 4.34333 36.4819 4.01333 36.8819 3.78C37.2885 3.54667 37.7519 3.43 38.2719 3.43C38.9452 3.43 39.4985 3.59333 39.9319 3.92C40.3719 4.24667 40.6619 4.7 40.8019 5.28H39.8219C39.7285 4.94667 39.5452 4.68333 39.2719 4.49C39.0052 4.29667 38.6719 4.2 38.2719 4.2C37.7519 4.2 37.3319 4.38 37.0119 4.74C36.6919 5.09333 36.5319 5.59667 36.5319 6.25C36.5319 6.91 36.6919 7.42 37.0119 7.78C37.3319 8.14 37.7519 8.32 38.2719 8.32C38.6719 8.32 39.0052 8.22667 39.2719 8.04C39.5385 7.85333 39.7219 7.58667 39.8219 7.24H40.8019C40.6552 7.8 40.3619 8.25 39.9219 8.59C39.4819 8.92333 38.9319 9.09 38.2719 9.09C37.7519 9.09 37.2885 8.97333 36.8819 8.74C36.4819 8.50667 36.1685 8.17667 35.9419 7.75C35.7152 7.32333 35.6019 6.82333 35.6019 6.25ZM45.0761 9L42.9261 6.58V9H42.0161V1.6H42.9261V5.95L45.0361 3.52H46.3061L43.7261 6.25L46.3161 9H45.0761ZM49.4886 6.24C49.4886 5.68 49.6019 5.19 49.8286 4.77C50.0553 4.34333 50.3653 4.01333 50.7586 3.78C51.1586 3.54667 51.6019 3.43 52.0886 3.43C52.5686 3.43 52.9853 3.53333 53.3386 3.74C53.6919 3.94667 53.9553 4.20667 54.1286 4.52V3.52H55.0486V9H54.1286V7.98C53.9486 8.3 53.6786 8.56667 53.3186 8.78C52.9653 8.98667 52.5519 9.09 52.0786 9.09C51.5919 9.09 51.1519 8.97 50.7586 8.73C50.3653 8.49 50.0553 8.15333 49.8286 7.72C49.6019 7.28667 49.4886 6.79333 49.4886 6.24ZM54.1286 6.25C54.1286 5.83667 54.0453 5.47667 53.8786 5.17C53.7119 4.86333 53.4853 4.63 53.1986 4.47C52.9186 4.30333 52.6086 4.22 52.2686 4.22C51.9286 4.22 51.6186 4.3 51.3386 4.46C51.0586 4.62 50.8353 4.85333 50.6686 5.16C50.5019 5.46667 50.4186 5.82667 50.4186 6.24C50.4186 6.66 50.5019 7.02667 50.6686 7.34C50.8353 7.64667 51.0586 7.88333 51.3386 8.05C51.6186 8.21 51.9286 8.29 52.2686 8.29C52.6086 8.29 52.9186 8.21 53.1986 8.05C53.4853 7.88333 53.7119 7.64667 53.8786 7.34C54.0453 7.02667 54.1286 6.66333 54.1286 6.25ZM58.6264 8.16L60.3264 3.52H61.2964L59.1464 9H58.0864L55.9364 3.52H56.9164L58.6264 8.16ZM61.8519 6.24C61.8519 5.68 61.9652 5.19 62.1919 4.77C62.4185 4.34333 62.7285 4.01333 63.1219 3.78C63.5219 3.54667 63.9652 3.43 64.4519 3.43C64.9319 3.43 65.3485 3.53333 65.7019 3.74C66.0552 3.94667 66.3185 4.20667 66.4919 4.52V3.52H67.4119V9H66.4919V7.98C66.3119 8.3 66.0419 8.56667 65.6819 8.78C65.3285 8.98667 64.9152 9.09 64.4419 9.09C63.9552 9.09 63.5152 8.97 63.1219 8.73C62.7285 8.49 62.4185 8.15333 62.1919 7.72C61.9652 7.28667 61.8519 6.79333 61.8519 6.24ZM66.4919 6.25C66.4919 5.83667 66.4085 5.47667 66.2419 5.17C66.0752 4.86333 65.8485 4.63 65.5619 4.47C65.2819 4.30333 64.9719 4.22 64.6319 4.22C64.2919 4.22 63.9819 4.3 63.7019 4.46C63.4219 4.62 63.1985 4.85333 63.0319 5.16C62.8652 5.46667 62.7819 5.82667 62.7819 6.24C62.7819 6.66 62.8652 7.02667 63.0319 7.34C63.1985 7.64667 63.4219 7.88333 63.7019 8.05C63.9819 8.21 64.2919 8.29 64.6319 8.29C64.9719 8.29 65.2819 8.21 65.5619 8.05C65.8485 7.88333 66.0752 7.64667 66.2419 7.34C66.4085 7.02667 66.4919 6.66333 66.4919 6.25ZM69.4197 2.63C69.2464 2.63 69.0997 2.57 68.9797 2.45C68.8597 2.33 68.7997 2.18333 68.7997 2.01C68.7997 1.83667 68.8597 1.69 68.9797 1.57C69.0997 1.45 69.2464 1.39 69.4197 1.39C69.5864 1.39 69.7264 1.45 69.8397 1.57C69.9597 1.69 70.0197 1.83667 70.0197 2.01C70.0197 2.18333 69.9597 2.33 69.8397 2.45C69.7264 2.57 69.5864 2.63 69.4197 2.63ZM69.8597 3.52V9H68.9497V3.52H69.8597ZM72.3206 1.6V9H71.4106V1.6H72.3206ZM73.5316 6.24C73.5316 5.68 73.6449 5.19 73.8716 4.77C74.0982 4.34333 74.4082 4.01333 74.8016 3.78C75.2016 3.54667 75.6449 3.43 76.1316 3.43C76.6116 3.43 77.0282 3.53333 77.3816 3.74C77.7349 3.94667 77.9982 4.20667 78.1716 4.52V3.52H79.0916V9H78.1716V7.98C77.9916 8.3 77.7216 8.56667 77.3616 8.78C77.0082 8.98667 76.5949 9.09 76.1216 9.09C75.6349 9.09 75.1949 8.97 74.8016 8.73C74.4082 8.49 74.0982 8.15333 73.8716 7.72C73.6449 7.28667 73.5316 6.79333 73.5316 6.24ZM78.1716 6.25C78.1716 5.83667 78.0882 5.47667 77.9216 5.17C77.7549 4.86333 77.5282 4.63 77.2416 4.47C76.9616 4.30333 76.6516 4.22 76.3116 4.22C75.9716 4.22 75.6616 4.3 75.3816 4.46C75.1016 4.62 74.8782 4.85333 74.7116 5.16C74.5449 5.46667 74.4616 5.82667 74.4616 6.24C74.4616 6.66 74.5449 7.02667 74.7116 7.34C74.8782 7.64667 75.1016 7.88333 75.3816 8.05C75.6616 8.21 75.9716 8.29 76.3116 8.29C76.6516 8.29 76.9616 8.21 77.2416 8.05C77.5282 7.88333 77.7549 7.64667 77.9216 7.34C78.0882 7.02667 78.1716 6.66333 78.1716 6.25ZM81.5394 4.54C81.726 4.21333 81.9994 3.94667 82.3594 3.74C82.7194 3.53333 83.1294 3.43 83.5894 3.43C84.0827 3.43 84.526 3.54667 84.9194 3.78C85.3127 4.01333 85.6227 4.34333 85.8494 4.77C86.076 5.19 86.1894 5.68 86.1894 6.24C86.1894 6.79333 86.076 7.28667 85.8494 7.72C85.6227 8.15333 85.3094 8.49 84.9094 8.73C84.516 8.97 84.076 9.09 83.5894 9.09C83.116 9.09 82.6994 8.98667 82.3394 8.78C81.986 8.57333 81.7194 8.31 81.5394 7.99V9H80.6294V1.6H81.5394V4.54ZM85.2594 6.24C85.2594 5.82667 85.176 5.46667 85.0094 5.16C84.8427 4.85333 84.616 4.62 84.3294 4.46C84.0494 4.3 83.7394 4.22 83.3994 4.22C83.066 4.22 82.756 4.30333 82.4694 4.47C82.1894 4.63 81.9627 4.86667 81.7894 5.18C81.6227 5.48667 81.5394 5.84333 81.5394 6.25C81.5394 6.66333 81.6227 7.02667 81.7894 7.34C81.9627 7.64667 82.1894 7.88333 82.4694 8.05C82.756 8.21 83.066 8.29 83.3994 8.29C83.7394 8.29 84.0494 8.21 84.3294 8.05C84.616 7.88333 84.8427 7.64667 85.0094 7.34C85.176 7.02667 85.2594 6.66 85.2594 6.24ZM87.8572 2.63C87.6839 2.63 87.5372 2.57 87.4172 2.45C87.2972 2.33 87.2372 2.18333 87.2372 2.01C87.2372 1.83667 87.2972 1.69 87.4172 1.57C87.5372 1.45 87.6839 1.39 87.8572 1.39C88.0239 1.39 88.1639 1.45 88.2772 1.57C88.3972 1.69 88.4572 1.83667 88.4572 2.01C88.4572 2.18333 88.3972 2.33 88.2772 2.45C88.1639 2.57 88.0239 2.63 87.8572 2.63ZM88.2972 3.52V9H87.3872V3.52H88.2972ZM90.7581 1.6V9H89.8481V1.6H90.7581ZM92.7791 2.63C92.6057 2.63 92.4591 2.57 92.3391 2.45C92.2191 2.33 92.1591 2.18333 92.1591 2.01C92.1591 1.83667 92.2191 1.69 92.3391 1.57C92.4591 1.45 92.6057 1.39 92.7791 1.39C92.9457 1.39 93.0857 1.45 93.1991 1.57C93.3191 1.69 93.3791 1.83667 93.3791 2.01C93.3791 2.18333 93.3191 2.33 93.1991 2.45C93.0857 2.57 92.9457 2.63 92.7791 2.63ZM93.2191 3.52V9H92.3091V3.52H93.2191ZM95.88 4.27V7.5C95.88 7.76667 95.9367 7.95667 96.05 8.07C96.1633 8.17667 96.36 8.23 96.64 8.23H97.31V9H96.49C95.9833 9 95.6033 8.88333 95.35 8.65C95.0967 8.41667 94.97 8.03333 94.97 7.5V4.27H94.26V3.52H94.97V2.14H95.88V3.52H97.31V4.27H95.88ZM103.133 3.52L99.8326 11.58H98.8926L99.9726 8.94L97.7626 3.52H98.7726L100.493 7.96L102.193 3.52H103.133Z" fill="#C94D3F"/>
<circle cx="5.5" cy="5" r="5" fill="#C94D3F"/>
<path d="M6.17669 5.85626L6.52669 5.50626C6.57383 5.4597 6.63347 5.42783 6.69838 5.41452C6.76328 5.4012 6.83065 5.40702 6.89231 5.43126L7.31888 5.60157C7.38119 5.62686 7.43462 5.67004 7.47244 5.72565C7.51025 5.78126 7.53076 5.84682 7.53138 5.91407V6.69532C7.53101 6.74107 7.5214 6.78627 7.50311 6.8282C7.48481 6.87013 7.45823 6.90793 7.42494 6.93931C7.39166 6.9707 7.35237 6.99502 7.30944 7.01083C7.2665 7.02663 7.22082 7.03358 7.17513 7.03126C4.18607 6.84532 3.58294 4.31407 3.46888 3.34532C3.46358 3.29775 3.46842 3.24959 3.48307 3.20402C3.49772 3.15846 3.52186 3.11651 3.55389 3.08093C3.58592 3.04536 3.62511 3.01698 3.6689 2.99764C3.71269 2.97831 3.76007 2.96846 3.80794 2.96876H4.56263C4.62997 2.96896 4.69572 2.9893 4.75141 3.02717C4.8071 3.06504 4.85018 3.1187 4.87513 3.18126L5.04544 3.60782C5.07048 3.66924 5.07687 3.73667 5.06381 3.8017C5.05075 3.86672 5.01882 3.92646 4.972 3.97344L4.622 4.32344C4.622 4.32344 4.82356 5.68751 6.17669 5.85626Z" fill="white"/>
</svg>
